<svg width="21" height="21" viewBox="0 0 21 21" fill="none" xmlns="http://www.w3.org/2000/svg">
<path d="M14.5672 2.91826C14.7769 2.70144 15.026 2.52945 15.3 2.41211C15.5741 2.29477 15.8679 2.23438 16.1645 2.23438C16.4612 2.23437 16.7549 2.29477 17.029 2.41211C17.3031 2.52945 17.5521 2.70144 17.7619 2.91826C17.9716 3.13508 18.138 3.39248 18.2515 3.67576C18.3651 3.95905 18.4235 4.26267 18.4235 4.5693C18.4235 4.87593 18.3651 5.17955 18.2515 5.46284C18.138 5.74612 17.9716 6.00352 17.7619 6.22034L6.9798 17.3649L2.58711 18.6032L3.78512 14.0628L14.5672 2.91826Z" stroke="white" stroke-width="2" stroke-linecap="round" stroke-linejoin="round"/>
</svg>
