<svg width="20" height="21" viewBox="0 0 20 21" fill="none" xmlns="http://www.w3.org/2000/svg">
<path d="M2.77692 5.39478H4.37426H17.153" stroke="white" stroke-width="2" stroke-linecap="round" stroke-linejoin="round"/>
<path d="M15.5556 5.39473V16.952C15.5556 17.3899 15.3873 17.8099 15.0878 18.1195C14.7882 18.4291 14.3819 18.6031 13.9583 18.6031H5.97158C5.54794 18.6031 5.14165 18.4291 4.84209 18.1195C4.54253 17.8099 4.37424 17.3899 4.37424 16.952V5.39473M6.77025 5.39473V3.74369C6.77025 3.30581 6.93854 2.88586 7.2381 2.57623C7.53766 2.2666 7.94395 2.09265 8.36759 2.09265H11.5623C11.9859 2.09265 12.3922 2.2666 12.6918 2.57623C12.9913 2.88586 13.1596 3.30581 13.1596 3.74369V5.39473" stroke="white" stroke-width="2" stroke-linecap="round" stroke-linejoin="round"/>
</svg>
